PathFileType	4	(X/Y/Z)	/Users/itak/Documents/Research/Walk-IL/dataset/trc/00176_00008.trc
DataRate	CameraRate	NumFrames	NumMarkers	Units	OrigDataRate	OrigDataStartFrame	OrigNumFrames
100.000000	100.000000	4	53	mm	100.000000	386	619
Frame#	Time	RPSI			LPSI			L3			STRN			T10			C7			CLAV			RBAK			LBAK			LSHO			LUPA			LAEL			LAOL			LWTS			LWPS			LFRA			LIFD			LHPS			LHTS			RSHO			RUPA			RAEL			RAOL			RWTS			RWPS			RFRA			RIFD			RHTS			RHPS			RBHD			LFHD			RFHD			LBHD			LHIP			RHIP			RASI			LASI			LKNE			LTHI			LANK			LTIP			LTOE			LMT1			LMT5			LHEE			RKNE			RTHI			RANK			RTIP			RTOE			RMT1			RMT5			RHEE			
		X1	Y1	Z1	X2	Y2	Z2	X3	Y3	Z3	X4	Y4	Z4	X5	Y5	Z5	X6	Y6	Z6	X7	Y7	Z7	X8	Y8	Z8	X9	Y9	Z9	X10	Y10	Z10	X11	Y11	Z11	X12	Y12	Z12	X13	Y13	Z13	X14	Y14	Z14	X15	Y15	Z15	X16	Y16	Z16	X17	Y17	Z17	X18	Y18	Z18	X19	Y19	Z19	X20	Y20	Z20	X21	Y21	Z21	X22	Y22	Z22	X23	Y23	Z23	X24	Y24	Z24	X25	Y25	Z25	X26	Y26	Z26	X27	Y27	Z27	X28	Y28	Z28	X29	Y29	Z29	X30	Y30	Z30	X31	Y31	Z31	X32	Y32	Z32	X33	Y33	Z33	X34	Y34	Z34	X35	Y35	Z35	X36	Y36	Z36	X37	Y37	Z37	X38	Y38	Z38	X39	Y39	Z39	X40	Y40	Z40	X41	Y41	Z41	X42	Y42	Z42	X43	Y43	Z43	X44	Y44	Z44	X45	Y45	Z45	X46	Y46	Z46	X47	Y47	Z47	X48	Y48	Z48	X49	Y49	Z49	X50	Y50	Z50	X51	Y51	Z51	X52	Y52	Z52	X53	Y53	Z53	

387	3.86	-615.3954467773438	1059.094482421875	263.5749816894531	-614.2686157226562	1060.424682617188	141.0407257080078	-608.2018432617188	1100.018676757812	202.9101409912109	-314.600341796875	1274.600708007812	192.3463745117188	-615.0691528320312	1260.130859375	189.494384765625	-516.5160522460938	1518.025024414062	177.0899658203125	-328.2958374023438	1391.50732421875	182.9728088378906	-604.4149780273438	1353.431030273438	286.5451049804688	-524.2147827148438	1494.66748046875	75.27911376953125	-446.9553527832031	1474.776000976562	-1.355702519416809	-489.6426086425781	1347.847534179688	-77.6595458984375	-487.6601867675781	1129.968017578125	-104.0951461791992	-537.0322875976562	1112.529907226562	-32.81671905517578	-348.6235961914062	917.1632690429688	-62.46062088012695	-423.0821533203125	882.0664672851562	-105.9087905883789	-461.3807373046875	1020.185119628906	-115.4152984619141	-298.7263488769531	738.7127075195312	-38.77297973632812	-389.5645446777344	817.2833251953125	-99.05059814453125	-322.528564453125	842.8216552734375	-81.21669006347656	-458.5589294433594	1488.7255859375	358.8894653320312	-484.384521484375	1423.727661132812	427.0955505371094	-523.4293212890625	1138.869995117188	486.6874694824219	-524.5218505859375	1128.214111328125	387.1930541992188	-388.4138488769531	910.4273681640625	483.0694274902344	-464.5963134765625	894.2055053710938	524.79150390625	-502.5194091796875	1066.178344726562	507.9248046875	-372.12158203125	723.5193481445312	460.3174743652344	-361.9361267089844	817.3278198242188	494.4453125	-437.2205200195312	810.5739135742188	524.4940795898438	-467.4076232910156	1652.1484375	262.0487976074219	-313.2212219238281	1730.758178710938	131.0311126708984	-308.5015258789062	1721.624755859375	260.6025085449219	-481.1421508789062	1668.281005859375	125.2199325561523	-523.4990234375	985.278076171875	21.39213562011719	-468.8050231933594	1005.9951171875	389.3621215820312	-386.8841857910156	1023.54150390625	332.2577209472656	-392.1565246582031	1011.3212890625	71.58193969726562	-486.5717468261719	479.5577392578125	69.19549560546875	-490.9859313964844	624.927978515625	39.51931762695312	-669.2705078125	42.29074478149414	100.4264144897461	-571.0712890625	260.4497985839844	73.64285278320312	-451.5562133789062	42.88569259643555	102.5335235595703	-492.3102416992188	44.01338577270508	154.8240356445312	-566.0771484375	29.56112670898438	46.69415664672852	-712.8661499023438	48.96908950805664	175.6485900878906	-279.8911437988281	544.92138671875	389.3869018554688	-365.8332824707031	801.3060302734375	408.3355102539062	-294.5701599121094	46.74524688720703	388.6942138671875	-247.7052764892578	424.3349304199219	385.0442199707031	-80.65547943115234	98.15509033203125	427.2923889160156	-116.8876342773438	90.99598693847656	365.8817749023438	-197.3761596679688	54.15129089355469	456.7954711914062	-321.4140014648438	41.5814094543457	308.2576599121094	
388	3.87	-622.8795166015625	1060.565185546875	263.0747985839844	-621.9298706054688	1061.840942382812	140.5790405273438	-615.7904663085938	1101.4970703125	202.3644561767578	-322.2102355957031	1276.199096679688	191.4075775146484	-622.5828857421875	1261.629150390625	188.8014831542969	-524.072998046875	1519.538818359375	176.365966796875	-335.9471740722656	1393.109985351562	181.9745483398438	-611.869140625	1354.968994140625	285.8446350097656	-531.9403076171875	1496.236938476562	74.59147644042969	-454.8144226074219	1476.373168945312	-2.149348735809326	-497.9783325195312	1349.636840820312	-78.50429534912109	-497.4000854492188	1131.872314453125	-104.8139038085938	-546.16796875	1114.757934570312	-33.07260894775391	-360.9424133300781	916.9644165039062	-65.39785003662109	-436.4743957519531	883.06689453125	-107.8508758544922	-472.6076354980469	1021.883483886719	-116.8508148193359	-313.2044067382812	737.7957763671875	-43.04799652099609	-403.772705078125	817.84033203125	-101.7448348999023	-336.1995239257812	842.3555908203125	-84.77459716796875	-465.9860534667969	1490.318237304688	358.0487060546875	-491.6784973144531	1425.303344726562	426.2937622070312	-530.5609741210938	1140.364501953125	485.6612243652344	-532.1038818359375	1129.896118164062	386.2324829101562	-395.6535034179688	911.836669921875	480.7817077636719	-471.4345397949219	895.6331176757812	523.2355346679688	-509.4996948242188	1067.645385742188	506.7474060058594	-379.8164367675781	724.908203125	457.4776306152344	-369.1082458496094	818.6939697265625	491.7007446289062	-444.1492614746094	811.9734497070312	522.532470703125	-474.5065612792969	1654.015869140625	260.9885864257812	-320.5244140625	1731.91455078125	129.3350372314453	-315.4740600585938	1723.205322265625	258.9193115234375	-488.5387268066406	1669.744384765625	124.1226959228516	-531.56787109375	986.5162353515625	20.83242034912109	-476.1693725585938	1007.79833984375	388.7918701171875	-394.3826599121094	1025.476318359375	331.5349426269531	-399.8782348632812	1012.8447265625	70.85353851318359	-490.7991943359375	480.8370361328125	68.94567108154297	-496.4260559082031	626.12548828125	39.13373565673828	-669.3195190429688	42.11232757568359	100.4134521484375	-573.1356811523438	260.9854431152344	73.58861541748047	-451.5791625976562	42.92297744750977	102.4878005981445	-492.3045654296875	44.08230209350586	154.7782287597656	-566.0958862304688	29.53920936584473	46.64764404296875	-712.8641967773438	48.56170654296875	175.6719055175781	-285.0606384277344	547.0051879882812	388.8016052246094	-372.106689453125	803.5623168945312	407.2890930175781	-316.445556640625	49.24989318847656	388.2564086914062	-256.0820922851562	425.0857543945312	384.3446960449219	-101.2023315429688	94.80532073974609	426.6763305664062	-137.5338897705078	88.20127868652344	365.2958984375	-218.9083557128906	54.30623626708984	456.3472290039062	-343.4458923339844	44.70224380493164	308.038330078125	
389	3.88	-630.1459350585938	1062.022094726562	262.8089599609375	-629.4786987304688	1063.239624023438	140.3357543945312	-623.2271118164062	1102.954223632812	202.037353515625	-329.7365417480469	1277.846435546875	190.5534210205078	-629.9949951171875	1263.064086914062	188.2607269287109	-531.6314697265625	1521.026123046875	175.7317199707031	-343.5544128417969	1394.757080078125	181.0672912597656	-619.2634887695312	1356.455932617188	285.2611389160156	-539.6620483398438	1497.781372070312	73.99563598632812	-462.6611633300781	1477.982543945312	-2.850754261016846	-506.2306213378906	1351.434448242188	-79.26553344726562	-507.0137634277344	1133.78515625	-105.4206008911133	-555.164794921875	1117.015991210938	-33.2015266418457	-373.4173889160156	916.6283569335938	-68.38124084472656	-450.1173400878906	884.0655517578125	-109.7102203369141	-483.8530578613281	1023.580444335938	-118.1733551025391	-328.1536560058594	736.69873046875	-47.32393646240234	-418.3539733886719	818.3446044921875	-104.3640365600586	-350.1991271972656	841.7149658203125	-88.36551666259766	-473.394287109375	1491.924072265625	357.2984313964844	-498.9701538085938	1426.906005859375	425.5794067382812	-537.7001342773438	1141.896850585938	484.7572937011719	-539.58154296875	1131.58642578125	385.3863525390625	-402.7754821777344	913.3429565429688	478.7790222167969	-478.2180786132812	897.108154296875	521.8428955078125	-516.4800415039062	1069.147216796875	505.722900390625	-387.2587890625	726.3915405273438	455.0116271972656	-376.143310546875	820.171142578125	489.3226318359375	-450.960693359375	813.445068359375	520.8046875	-481.6455383300781	1655.884399414062	260.0217590332031	-327.8397827148438	1733.107055664062	127.7896881103516	-322.4927368164062	1724.781860351562	257.3848571777344	-495.9533386230469	1671.237670898438	123.1244354248047	-539.6361083984375	987.7539672851562	20.41593742370605	-483.2574157714844	1009.548156738281	388.3505554199219	-401.637451171875	1027.35302734375	330.8870849609375	-407.5589904785156	1014.337036132812	70.24209594726562	-495.0575866699219	482.1291809082031	68.72026824951172	-501.9471130371094	627.3309936523438	38.77544021606445	-669.3700561523438	41.96316909790039	100.3948745727539	-575.24365234375	261.5763854980469	73.53394317626953	-451.6010131835938	42.96568298339844	102.4354019165039	-492.2956848144531	44.17522811889648	154.709228515625	-566.11669921875	29.51197242736816	46.58961868286133	-712.875244140625	48.23412704467773	175.6772308349609	-290.236572265625	548.9661865234375	388.2188720703125	-378.187744140625	805.7250366210938	406.2578735351562	-338.8125305175781	52.25070190429688	388.2044372558594	-264.5945434570312	425.8132629394531	383.6088256835938	-122.3029174804688	91.681640625	425.68701171875	-158.9368591308594	85.66806793212891	364.4391479492188	-240.8184356689453	54.79073715209961	455.9196472167969	-366.3527221679688	48.2410774230957	308.3031921386719	
390	3.89	-637.2161254882812	1063.449951171875	262.755615234375	-636.9132080078125	1064.591552734375	140.2936553955078	-630.5137939453125	1104.366821289062	201.9119873046875	-337.18212890625	1279.504760742188	189.7676391601562	-637.3167724609375	1264.419921875	187.8843536376953	-539.1929931640625	1522.462890625	175.1870269775391	-351.1150512695312	1396.408569335938	180.2381896972656	-626.59375	1357.871704101562	284.8096313476562	-547.3856201171875	1499.2685546875	73.49455261230469	-470.5100402832031	1479.560791015625	-3.465030908584595	-514.4193115234375	1353.190185546875	-79.93520355224609	-516.4825439453125	1135.663818359375	-105.941650390625	-564.0315551757812	1119.24560546875	-33.25315475463867	-386.0254211425781	916.1481323242188	-71.375	-463.9272155761719	885.0576171875	-111.5200119018555	-495.0732727050781	1025.244995117188	-119.3956451416016	-343.5697631835938	735.417724609375	-51.54311370849609	-433.2386474609375	818.7959594726562	-106.9170761108398	-364.4787292480469	840.9022216796875	-91.93942260742188	-480.7645874023438	1493.515502929688	356.6378479003906	-506.2406005859375	1428.510375976562	424.9557189941406	-544.8527221679688	1143.438354492188	483.9806823730469	-546.9588012695312	1133.261474609375	384.6576538085938	-409.7767639160156	914.9248046875	477.0822448730469	-484.9617004394531	898.5974731445312	520.605712890625	-523.4728393554688	1070.652221679688	504.8497009277344	-394.42138671875	727.948974609375	452.9183654785156	-383.0363159179688	821.73828125	487.3284606933594	-457.6663818359375	814.9551391601562	519.2958984375	-488.8325805664062	1657.723266601562	259.1515197753906	-335.1730346679688	1734.3125	126.3898162841797	-329.5635986328125	1726.331665039062	255.994384765625	-503.3925170898438	1672.732421875	122.2243957519531	-547.6297607421875	988.9559326171875	20.15357780456543	-490.0870361328125	1011.23583984375	388.0155944824219	-408.6567993164062	1029.144287109375	330.2978210449219	-415.1997375488281	1015.771728515625	69.74170684814453	-499.3739624023438	483.4129028320312	68.53873443603516	-507.5571594238281	628.510009765625	38.46019744873047	-669.430419921875	41.82490539550781	100.3800659179688	-577.4146728515625	262.195068359375	73.49465179443359	-451.6269226074219	43.01256561279297	102.3775329589844	-492.2895202636719	44.28651809692383	154.6260833740234	-566.1399536132812	29.48304748535156	46.52882385253906	-712.8976440429688	47.94684982299805	175.6808471679688	-295.5104370117188	550.7371826171875	387.6604309082031	-384.1047973632812	807.76611328125	405.2489929199219	-361.5777282714844	55.71500396728516	388.5046997070312	-273.3190612792969	426.4801940917969	382.8828430175781	-143.8994293212891	88.83639526367188	424.4259643554688	-181.0082397460938	83.44258880615234	363.4148254394531	-263.0632934570312	55.58821868896484	455.5359191894531	-389.9452209472656	52.22898101806641	308.9751586914062	
